# xmcd CD database file
#
# Track frame offsets:
#	150
#	34089
#	69620
#	91663
#	125621
#	156218
#	184320
#	214859
#	227873
#
# Disc length: 3321 seconds
#
# Revision: 0
# Processed by: cddbd v1.5.2PL0 Copyright (c) Steve Scherf et al.
# Submitted via: CDex 1.83
#
DISCID=7b0cf709
DTITLE=Chris Mapstone - Spirit Songs
DYEAR=1900
DGENRE=New Age
TTITLE0=Medicine Drum
TTITLE1=Great Spirit
TTITLE2=Alho
TTITLE3=Hallelujah
TTITLE4=Inlakesh
TTITLE5=Divinity
TTITLE6=Journey On
TTITLE7=Life Sweet Life
TTITLE8=Home
EXTD=
EXTT0=
EXTT1=
EXTT2=
EXTT3=
EXTT4=
EXTT5=
EXTT6=
EXTT7=
EXTT8=
PLAYORDER=
